{"title":"Blind.2014.DVDRip.x264.HORiZON-ArtSubs","uid":11092032,"size":1477030834,"categoryP":"video","categoryS":"movies","magnet":"?xt=urn:btih:f6e98baca24ad6d68de9579c91ab13c126ba0637&amp;dn=Blind.2014.DVDRip.x264.HORiZON-ArtSubs&amp;tr=udp%3A%2F%2Ftracker.openbittorrent.com%3A80&amp;tr=udp%3A%2F%2Fopen.demonii.com%3A1337&amp;tr=udp%3A%2F%2Ftracker.coppersurfer.tk%3A6969&amp;tr=udp%3A%2F%2Fexodus.desync.com%3A6969","seeders":2,"leechers":0,"uploader":"noriegaRJ","files":-1,"time":1411537071,"description":"Title: Blind\n\n\nIMDB Link:                                &lt;a href=&quot;\nhttp://www.imdb.com/title/tt2616810/&quot; rel=&quot;nofollow&quot; target=&quot;_NEW&quot;&gt;\nhttp://www.imdb.com/title/tt2616810/&lt;/a&gt;\n\n\nPlot: Having recently lost her sight, Ingrid retreats to the safety of her home - a place where she can feel in control, alone with her husband and her thoughts. But Ingrid's real problems lie within, not beyond the walls of her apartment, and her deepest fears and repressed fantasies soon take over.\n\n\n\nSOFT SUBTITLE in ENGLISH. \n\n\n\nGeneral\nComplete name                            : Blind.2014.DVDRip.x264.HORiZON-ArtSubs\nFormat                                   : Matroska\nFormat version                           : Version 2\nFile size                                : 1.38 GiB\nDuration                                 : 1h 31mn\nOverall bit rate                         : 2 141 Kbps\nWriting application                      : HandBrake 0.9.9\nWriting library                          : libmkv 0.6.5\n\nVideo\nID                                       : 1\nFormat                                   : AVC\nFormat/Info                              : Advanced Video Codec\nFormat profile                           : &lt;a class=&quot;__cf_email__&quot; href=&quot;/cdn-cgi/l/email-protection&quot; data-cfemail=&quot;a7efcec0cfe7eb948996&quot;&gt;[email&amp;#160;protected]&lt;/a&gt;&lt;script data-cfhash='f9e31' type=&quot;text/javascript&quot;&gt;\n/* &lt;![CDATA[ */!function(){try{var t=&quot;currentScript&quot;in document?document.currentScript:function(){for(var t=document.getElementsByTagName(&quot;script&quot;),e=t.length;e--;)if(t[e].getAttribute(&quot;data-cfhash&quot;))return t[e]}();if(t&amp;&amp;t.previousSibling){var e,r,n,i,c=t.previousSibling,a=c.getAttribute(&quot;data-cfemail&quot;);if(a){for(e=&quot;&quot;,r=parseInt(a.substr(0,2),16),n=2;a.length-n;n+=2)i=parseInt(a.substr(n,2),16)^r,e+=String.fromCharCode(i);e=document.createTextNode(e),c.parentNode.replaceChild(e,c)}t.parentNode.removeChild(t);}}catch(u){}}()/* ]]&gt; */&lt;/script&gt;\nFormat settings, CABAC                   : Yes\nFormat settings, ReFrames                : 9 frames\nCodec ID                                 : V_MPEG4/ISO/AVC\nDuration                                 : 1h 31mn\nBit rate                                 : 1 650 Kbps\nWidth                                    : 720 pixels\nHeight                                   : 556 pixels\nDisplay aspect ratio                     : 1.85:1\nFrame rate mode                          : Constant\nFrame rate                               : 25.000 fps\nColor space                              : YUV\nChroma subsampling                       : 4:2:0\nBit depth                                : 8 bits\nScan type                                : Progressive\nBits/(Pixel*Frame)                       : 0.165\nStream size                              : 1.06 GiB (77%)\nWriting library                          : x264 core 130 r2273 b3065e6\nLanguage                                 : English\nDefault                                  : Yes\nForced                                   : No\nColor primaries                          : BT.601 PAL\nTransfer characteristics                 : BT.709\nMatrix coefficients                      : BT.601\n\nAudio\nID                                       : 2\nFormat                                   : AC-3\nFormat/Info                              : Audio Coding 3\nMode extension                           : CM (complete main)\nFormat settings, Endianness              : Big\nCodec ID                                 : A_AC3\nDuration                                 : 1h 31mn\nBit rate mode                            : Constant\nBit rate                                 : 448 Kbps\nChannel count                            : 6 channels\nChannel positions                        : Front: L C R, Side: L R, LFE\nSampling rate                            : 48.0 KHz\nBit depth                                : 16 bits\nCompression mode                         : Lossy\nStream size                              : 295 MiB (21%)\nLanguage                                 : Norwegian\nDefault                                  : Yes\nForced                                   : No\n\nText #1\nID                                       : 3\nFormat                                   : VobSub\nCodec ID                                 : S_VOBSUB\nCodec ID/Info                            : The same subtitle format used on DVDs\nLanguage                                 : English\nDefault                                  : No\nForced                                   : No\n\nText #2\nID                                       : 4\nFormat                                   : VobSub\nCodec ID                                 : S_VOBSUB\nCodec ID/Info                            : The same subtitle format used on DVDs\nLanguage                                 : Norwegian\nDefault                                  : No\nForced                                   : No\n\n\n\nThanks to those helping me seed. Leechers remember, the community depends on you. If nobody shares, the freebies go away. Remember, the only reason you can download this free movie is because others are generous enough to keep sharing it with you. If nobody shares, everybody loses, so even if its for an extra hour or two after you get it, remember, others want to see it too, and they can't without you.\n\n\nSEE MY OTHERS UPLOADS:                                                        &lt;a href=&quot;\nhttp://thepiratebay.se/user/noriegaRJ&quot; rel=&quot;nofollow&quot; target=&quot;_NEW&quot;&gt;\nhttp://thepiratebay.se/user/noriegaRJ&lt;/a&gt;\n\nAND SEE THIS ANOTHERS UPLOADS FROM &quot;HORiZON-ArtSubs&quot;:        &lt;a href=&quot;\nhttp://thepiratebay.se/user/artsubs&quot; rel=&quot;nofollow&quot; target=&quot;_NEW&quot;&gt;\nhttp://thepiratebay.se/user/artsubs&lt;/a&gt;        &lt;a href=&quot;\nhttp://thepiratebay.se/user/lletaif&quot; rel=&quot;nofollow&quot; target=&quot;_NEW&quot;&gt;\nhttp://thepiratebay.se/user/lletaif&lt;/a&gt;\t\t\t\t\t","torrent":{"xt":"urn:btih:f6e98baca24ad6d68de9579c91ab13c126ba0637","amp;dn":"Blind.2014.DVDRip.x264.HORiZON-ArtSubs","amp;tr":["udp%3A%2F%2Ftracker.openbittorrent.com%3A80","udp%3A%2F%2Fopen.demonii.com%3A1337","udp%3A%2F%2Ftracker.coppersurfer.tk%3A6969","udp%3A%2F%2Fexodus.desync.com%3A6969"],"infoHash":"f6e98baca24ad6d68de9579c91ab13c126ba0637","infoHashBuffer":{"type":"Buffer","data":[246,233,139,172,162,74,214,214,141,233,87,156,145,171,19,193,38,186,6,55]},"announce":[],"urlList":[]}}